HIERARCHY
ROOT hip
{
	OFFSET 0.000000 0.000000 0.000000 
	CHANNELS 6 Xposition Yposition Zposition Xrotation Zrotation Yrotation
	JOINT abdomen
	{
		OFFSET 0.000000 3.402643 0.000000 
		CHANNELS 3 Xrotation Zrotation Yrotation
		JOINT chest
		{
			OFFSET 0.000000 8.438565 -0.680529 
			CHANNELS 3 Xrotation Zrotation Yrotation
			JOINT neck
			{
				OFFSET 0.000000 10.207942 -0.272212 
				CHANNELS 3 Xrotation Zrotation Yrotation
				JOINT head
				{
					OFFSET 0.000000 3.130431 0.000000 
					CHANNELS 3 Xrotation Zrotation Yrotation
					End Site
					{
						OFFSET 0.000000 3.130435 0.000000 
					}
				}
			}
			JOINT lCollar
			{
				OFFSET 3.470700 6.669187 -0.816635 
				CHANNELS 3 Yrotation Zrotation Xrotation
				JOINT lShldr
				{
					OFFSET 3.198488 0.000000 0.000000 
					CHANNELS 3 Zrotation Yrotation Xrotation
					JOINT lForeArm
					{
						OFFSET 10.139888 0.000000 0.000000 
						CHANNELS 3 Yrotation Zrotation Xrotation
						JOINT lHand
						{
							OFFSET 8.370511 0.000000 0.000000 
							CHANNELS 3 Zrotation Yrotation Xrotation
							End Site
							{
								OFFSET 4.083176 0.000000 0.000000 
							}
						}
					}
				}
			}
			JOINT rCollar
			{
				OFFSET -3.470700 6.669187 -0.816635 
				CHANNELS 3 Yrotation Zrotation Xrotation
				JOINT rShldr
				{
					OFFSET -3.198488 0.000000 0.000000 
					CHANNELS 3 Zrotation Yrotation Xrotation
					JOINT rForeArm
					{
						OFFSET -10.139888 0.000000 0.000000 
						CHANNELS 3 Yrotation Zrotation Xrotation
						JOINT rHand
						{
							OFFSET -8.370511 0.000000 0.000000 
							CHANNELS 3 Zrotation Yrotation Xrotation
							End Site
							{
								OFFSET -4.083176 0.000000 0.000000 
							}
						}
					}
				}
			}
		}
	}
	JOINT lThigh
	{
		OFFSET 5.308129 -1.633274 1.361059 
		CHANNELS 3 Xrotation Zrotation Yrotation
		JOINT lShin
		{
			OFFSET -2.041588 -20.007561 0.000000 
			CHANNELS 3 Xrotation Zrotation Yrotation
			JOINT lFoot
			{
				OFFSET 0.000000 -19.190928 -1.224953 
				CHANNELS 3 Xrotation Yrotation Zrotation
				End Site
				{
					OFFSET 0.000000 -2.449906 4.627600 
				}
			}
		}
	}
	JOINT rThigh
	{
		OFFSET -5.308129 -1.633274 1.361059 
		CHANNELS 3 Xrotation Zrotation Yrotation
		JOINT rShin
		{
			OFFSET 2.041588 -20.007561 0.000000 
			CHANNELS 3 Xrotation Zrotation Yrotation
			JOINT rFoot
			{
				OFFSET 0.000000 -19.190928 -1.224953 
				CHANNELS 3 Xrotation Yrotation Zrotation
				End Site
				{
					OFFSET 0.000000 -2.449906 4.627600 
				}
			}
		}
	}
}
MOTION
Frames: 6
Frame Time: 0.033333
-0.005869 29.634613 -17.578030 -16.082354 1.246785 -0.154195 16.803818 -0.417696 -0.936551 4.464677 -0.361424 -0.606348 0.000000 0.000000 6.010485 0.288098 0.735197 -8.440483 -2.237686 -7.395187 -0.799926 -67.906670 -13.144197 18.352221 -61.881138 -6.601289 8.362050 17.138418 -12.641506 40.381683 -3.942628 19.654621 -9.499967 58.667629 6.893768 19.371647 68.910980 9.447752 16.736258 -5.163865 13.458296 52.809216 -68.755936 6.390934 1.215640 103.667015 -1.329331 -9.434769 -18.856333 3.169754 3.309149 -69.664871 -8.126916 1.831499 104.404404 1.060705 8.966246 -19.129162 -2.265102 -2.695833 
0.000085 29.468407 -17.298000 -14.655907 1.251644 -0.154796 18.713787 -0.281462 -0.698267 4.379151 -0.337090 -0.599895 0.000000 0.000000 6.033909 -1.443146 0.738062 -7.442447 -1.833071 -7.539948 -0.774535 -67.492188 -10.380595 19.629082 -66.289040 -1.459716 13.589879 22.549891 -14.443179 35.735313 -4.467688 19.979271 -9.411671 55.371468 6.085921 22.374620 72.449158 4.843822 15.688541 -13.713774 14.235959 48.348450 -70.540863 6.660809 1.803195 104.159698 -1.043074 -9.485353 -18.940100 3.015325 3.657142 -71.295349 -8.326276 1.689069 104.753471 1.019835 9.004152 -19.240673 -2.052459 -2.867315 
0.008373 29.237028 -17.049831 -13.135779 1.258408 -0.155632 20.763756 -0.127617 -0.438186 4.260091 -0.303216 -0.590912 0.000000 0.000000 6.066518 -3.280128 0.742051 -6.375439 -1.269809 -7.741467 -0.739189 -67.251678 -8.142919 20.996395 -70.087662 4.168724 19.522724 27.686363 -11.990644 30.401121 -5.198622 20.431217 -9.288755 51.846504 5.682653 25.381079 75.489906 -0.216883 14.887654 -20.164360 10.356162 43.691818 -72.326248 7.743153 3.303150 104.721283 -0.560175 -9.522356 -19.005106 2.050621 4.679080 -73.563766 -8.667078 1.329840 105.501427 0.948465 9.069879 -19.194838 -1.705181 -3.256897 
0.016931 28.998146 -16.792175 -11.561604 1.265391 -0.156496 22.886408 0.031583 -0.168940 4.137164 -0.268242 -0.581636 0.000000 0.000000 6.100183 -5.182525 0.746168 -5.270539 -0.688259 -7.949527 -0.702695 -67.148514 -6.350850 22.395351 -72.952858 9.940692 25.641283 29.715858 -6.332467 25.456495 -5.953285 20.897833 -9.161847 48.293289 5.459056 28.309006 77.813843 -5.456617 14.174654 -21.936167 3.620337 39.912712 -74.049927 9.617418 5.562704 105.331078 -0.062291 -9.571425 -19.001945 0.279447 6.374804 -75.590492 -9.345039 0.696403 106.052460 0.857684 9.134491 -19.192020 -1.033180 -3.865975 
0.023693 28.809402 -16.483692 -9.973022 1.270909 -0.157179 25.014448 0.183884 0.096842 4.040041 -0.240609 -0.574308 0.000000 0.000000 6.126782 -7.110015 0.749422 -4.158831 -0.228782 -8.113914 -0.673861 -67.110123 -4.555434 23.833597 -75.549789 15.619396 31.667656 27.109865 -0.041119 21.044090 -6.549538 21.266506 -9.061580 44.813396 5.088672 31.215338 79.554169 -10.649704 13.407437 -18.449387 -2.870879 36.705654 -75.424652 11.693872 7.882298 105.889061 0.306496 -9.614331 -19.101917 -1.759128 8.229287 -77.444580 -10.194266 -0.060828 106.643608 0.776396 9.185700 -19.364599 -0.163426 -4.627347 
0.026592 28.728456 -16.083031 -8.409666 1.273275 -0.157471 27.080564 0.317030 0.346529 3.998391 -0.228759 -0.571166 0.000000 0.000000 6.138190 -9.022273 0.750817 -3.071395 -0.031738 -8.184412 -0.661496 -67.079124 -2.640338 25.300983 -77.514030 20.979034 37.201073 21.143801 3.486468 16.471312 -6.805238 21.424610 -9.018581 41.535259 4.207776 34.294811 80.546616 -15.557103 12.433976 -11.431314 -5.912175 33.677628 -76.462929 13.429417 9.593012 106.294373 0.405612 -9.637663 -19.362213 -3.579148 9.731404 -78.858932 -10.972521 -0.764437 107.119316 0.725572 9.223482 -19.832962 0.668497 -5.303078 
